<svg version="1.1" id="Layer_1" xmlns="http://www.w3.org/2000/svg" xmlns:xlink="http://www.w3.org/1999/xlink" x="0px" y="0px"
	 width="100%" viewBox="0 0 1254 1254" enable-background="new 0 0 1254 1254" xml:space="preserve">
<path fill="#000000" opacity="1.000000" stroke="none" 
	d="
M1.000005,1209.000000 
	C1.000000,822.300598 1.000000,435.601196 1.328583,48.268456 
	C5.285129,28.258118 15.697778,14.027576 33.761696,5.784777 
	C38.016342,3.843328 42.579025,2.576940 47.000000,1.000000 
	C433.366058,1.000000 819.732117,1.000000 1206.699951,1.363132 
	C1229.387695,4.856956 1243.928833,17.314474 1251.829224,37.881542 
	C1253.094116,41.174488 1253.953369,44.623257 1255.000000,47.999996 
	C1255.000000,434.699371 1255.000000,821.398743 1254.656982,1208.706299 
	C1250.255371,1228.593262 1239.687256,1242.752563 1221.361938,1250.542358 
	C1216.772339,1252.493286 1211.797607,1253.538452 1207.000000,1255.000000 
	C820.300598,1255.000000 433.601196,1255.000000 46.350826,1254.639893 
	C45.014969,1254.025146 44.239529,1253.735718 43.443832,1253.521362 
	C21.228125,1247.538086 7.194370,1233.611328 2.074594,1210.990479 
	C1.914275,1210.282104 1.366925,1209.661499 1.000005,1209.000000 
M587.621582,371.909607 
	C617.663635,413.658051 647.657410,455.441406 677.807251,497.111908 
	C681.687012,502.474182 685.800964,507.930420 690.804260,512.163757 
	C702.846130,522.352600 722.172913,520.530396 730.586975,508.941467 
	C729.969055,508.039612 729.338440,507.070648 728.660339,506.136200 
	C705.584778,474.337250 682.359070,442.645966 659.462585,410.718658 
	C631.717041,372.029755 604.444336,333.000610 576.554871,294.416626 
	C566.829163,280.961487 557.085632,267.143646 545.234375,255.678619 
	C520.445740,231.697906 490.477264,220.840668 455.667389,226.923782 
	C423.820404,232.489105 398.500641,249.118820 378.937622,274.381989 
	C341.103424,323.240112 303.533569,372.304443 266.088379,421.461761 
	C239.853470,455.902405 213.857864,490.528137 188.037430,525.280823 
	C169.363907,550.414124 151.070953,575.832153 132.789078,601.253235 
	C127.608467,608.456909 128.650040,616.944092 134.570068,621.441895 
	C140.559830,625.992676 148.979813,624.890015 154.735641,618.528503 
	C159.651779,613.095032 164.478882,607.563843 169.059189,601.846558 
	C193.949203,570.778137 218.850311,539.717590 243.560196,508.505981 
	C286.267303,454.561584 328.790375,400.471497 371.488617,346.520050 
	C386.889465,327.060333 402.011230,307.334656 418.306702,288.642517 
	C431.017578,274.062195 447.612091,264.740173 467.227600,263.155914 
	C494.760193,260.932281 515.437073,274.387573 531.402893,295.159546 
	C550.577759,320.106476 568.627136,345.918518 587.621582,371.909607 
M702.188049,354.296814 
	C691.351685,340.151642 680.200012,326.233185 669.802612,311.772369 
	C663.995483,303.695801 650.057129,304.869324 646.806274,313.204285 
	C662.652588,335.028625 678.974304,356.712769 694.448181,378.985992 
	C725.798401,424.111786 756.748718,469.516052 787.738586,514.891113 
	C799.276306,531.784607 809.304871,549.843933 822.034180,565.762268 
	C855.982788,608.215820 911.506836,614.730103 955.256836,582.656738 
	C969.586853,572.151428 980.508911,558.578613 990.630920,544.237732 
	C1016.642090,507.384979 1042.858887,470.675018 1068.590454,433.627960 
	C1092.419312,399.320190 1115.801636,364.700989 1139.192627,330.091827 
	C1143.457031,323.782135 1147.467163,317.134644 1150.407837,310.143890 
	C1153.253784,303.378143 1150.344727,296.539093 1144.752686,293.102051 
	C1139.503052,289.875519 1132.693481,290.916443 1127.425415,296.047302 
	C1125.294678,298.122498 1123.495972,300.572357 1121.736694,302.990417 
	C1071.794189,371.638062 1021.999329,440.393707 971.845337,508.886414 
	C962.328308,521.883423 952.186035,534.616821 940.930542,546.097534 
	C926.880371,560.428772 909.179321,567.277588 888.717041,564.787048 
	C867.345398,562.185913 850.721924,550.984253 837.464233,534.734558 
	C826.523926,521.325195 816.296509,507.326935 805.936035,493.452972 
	C771.460388,447.285400 737.067200,401.056213 702.188049,354.296814 
M309.275482,703.982971 
	C310.497437,700.726196 311.719421,697.469421 312.941711,694.211792 
	C335.052734,694.211792 356.849213,694.211792 378.880096,694.211792 
	C382.961731,705.907288 386.968018,717.521057 391.112549,729.085388 
	C391.606323,730.463257 392.822693,732.614197 393.756836,732.642151 
	C402.787292,732.911926 411.829071,732.804016 421.303314,732.804016 
	C420.514038,730.468933 420.035492,728.898682 419.457581,727.365845 
	C400.362976,676.721680 381.279694,626.073120 362.039337,575.484375 
	C361.544739,574.183960 359.343384,572.781189 357.887054,572.723999 
	C350.400940,572.430237 342.891174,572.745239 335.404266,572.462036 
	C331.965027,572.331970 330.604065,573.579590 329.415985,576.749329 
	C314.863892,615.572815 300.116302,654.322998 285.451202,693.104187 
	C280.528381,706.122437 275.695984,719.174866 270.581909,732.854492 
	C279.431396,732.854492 287.547424,732.712708 295.653839,732.929810 
	C298.571106,733.007935 299.710754,731.895020 300.563293,729.288147 
	C303.254669,721.058472 306.200775,712.912170 309.275482,703.982971 
M511.783783,623.068970 
	C503.011475,648.788086 494.239166,674.507202 485.213531,700.969055 
	C470.540894,657.713928 456.106476,615.161133 441.766327,572.886230 
	C431.919373,572.886230 422.493958,572.886230 412.799957,572.886230 
	C412.994354,573.892151 413.034332,574.537354 413.243988,575.121826 
	C431.752411,626.715149 450.252991,678.311340 468.911255,729.850525 
	C469.394257,731.184814 471.580261,732.698059 473.025787,732.754578 
	C480.346191,733.040771 487.690826,732.687500 495.013519,732.943298 
	C498.557343,733.067139 500.170929,731.907043 501.404999,728.506042 
	C512.939087,696.719177 524.722900,665.023132 536.345642,633.268250 
	C543.645691,613.323425 550.793945,593.322937 558.288452,572.577515 
	C549.276550,572.577515 540.990479,572.743286 532.716980,572.492798 
	C529.580505,572.397766 528.439819,573.621826 527.528625,576.383484 
	C522.465332,591.729614 517.215759,607.014343 511.783783,623.068970 
M426.247009,885.601135 
	C426.247009,883.297424 426.247009,880.993652 426.247009,878.689941 
	C451.283722,915.264893 497.652435,909.408020 518.145447,891.657471 
	C544.750916,868.612427 547.486938,824.053223 523.286621,797.631287 
	C511.485138,784.746338 496.487305,778.550842 479.286041,778.291077 
	C456.903839,777.953064 439.096588,786.932007 426.275787,806.144958 
	C426.275787,797.784607 426.275787,789.424255 426.275787,781.119141 
	C421.231873,781.119141 416.821320,781.119141 412.617004,781.119141 
	C412.617004,837.183105 412.617004,892.932129 412.617004,948.753174 
	C417.285370,948.753174 421.561859,948.753174 426.237274,948.753174 
	C426.237274,927.875061 426.237274,907.227173 426.247009,885.601135 
M670.884888,887.384033 
	C676.162476,881.859680 680.379150,875.704956 682.969421,867.522156 
	C678.662903,867.522156 675.007202,867.325317 671.392273,867.623474 
	C670.033936,867.735535 668.145020,868.666748 667.556152,869.782776 
	C656.286987,891.142090 630.079834,897.500427 609.063354,891.005859 
	C589.873779,885.075867 575.088623,864.925720 576.688354,846.478516 
	C613.043152,846.478516 649.441589,846.478516 686.261963,846.478516 
	C687.107422,822.146484 679.940063,801.646729 659.294556,788.419495 
	C618.508789,762.288879 567.617249,787.081421 562.175598,835.159973 
	C559.106750,862.273682 572.698608,887.958740 596.124634,899.314758 
	C620.428223,911.096191 651.859436,906.260193 670.884888,887.384033 
M944.192200,837.366333 
	C933.979309,834.426453 923.635986,831.866333 913.597046,828.419678 
	C906.310547,825.918030 901.703979,820.466431 901.537598,812.307739 
	C901.371887,804.182495 905.343750,798.312744 912.306580,794.494324 
	C931.574890,783.927490 952.964050,791.900330 960.323242,812.154663 
	C964.605347,812.154663 968.817627,812.154663 973.037903,812.154663 
	C972.476196,801.798157 968.764282,793.888000 960.990662,788.133545 
	C944.782898,776.135681 926.971863,775.503479 908.881042,782.612732 
	C894.385681,788.309021 886.774353,799.916443 887.270630,813.088257 
	C887.778320,826.563110 895.432861,835.681885 911.058838,841.071960 
	C916.556213,842.968323 922.231384,844.342773 927.773376,846.117737 
	C935.822449,848.695679 944.256348,850.550110 951.754211,854.269287 
	C966.192871,861.431213 966.349365,879.672791 952.633606,888.205750 
	C943.795593,893.704102 934.096863,894.562683 924.204224,893.119141 
	C913.280518,891.525085 903.547913,887.589905 898.938538,876.297607 
	C898.077148,874.187195 897.474426,871.971252 896.872009,870.163208 
	C892.219788,870.163208 887.983887,870.163208 883.515625,870.163208 
	C884.726501,883.366089 890.963318,892.959717 902.246155,898.770386 
	C920.055725,907.942444 938.640564,908.330811 956.751953,900.304199 
	C979.685669,890.140503 983.681885,860.990051 964.249756,846.575928 
	C958.677124,842.442444 951.415649,840.585693 944.192200,837.366333 
M310.779846,824.779846 
	C314.826569,830.003967 318.873291,835.228149 322.900787,840.427429 
	C306.543427,861.303528 290.495544,881.784668 273.793640,903.100525 
	C278.781799,903.100525 282.583618,902.850464 286.336334,903.172668 
	C289.894745,903.478210 292.087219,902.179077 294.212830,899.352356 
	C303.320709,887.240295 312.658325,875.300598 321.943604,863.322449 
	C325.162781,859.169739 328.473022,855.087524 331.959839,850.698547 
	C344.858582,867.327148 357.371765,883.500732 369.962738,899.613647 
	C371.011719,900.956177 372.517487,902.746887 373.926727,902.857605 
	C378.952637,903.252625 384.028473,903.012085 389.919128,903.012085 
	C373.082306,881.659973 356.872101,861.102478 340.679565,840.567383 
	C356.330170,820.583374 371.659119,801.010132 387.464142,780.828918 
	C382.563568,780.828918 378.575592,781.011780 374.613434,780.770508 
	C371.492767,780.580444 369.528778,781.548035 367.589050,784.165771 
	C359.361633,795.269104 350.838684,806.153748 342.402313,817.101746 
	C339.002167,821.514221 335.547211,825.884338 331.904846,830.545471 
	C319.800964,814.856140 308.124725,799.687683 296.389374,784.565125 
	C295.309265,783.173340 293.930817,781.122742 292.555725,781.008789 
	C287.429047,780.583923 282.245972,780.839172 276.301697,780.839172 
	C288.145905,795.938477 299.239258,810.080627 310.779846,824.779846 
M850.867615,780.749695 
	C845.430237,780.749695 839.992859,780.749695 834.017944,780.749695 
	C834.017944,768.047668 834.017944,756.157898 834.017944,744.366821 
	C829.044617,744.366821 824.644531,744.366821 819.818726,744.366821 
	C819.818726,756.620178 819.818726,768.531555 819.818726,780.776489 
	C812.260254,780.776489 805.131409,780.776489 797.871826,780.776489 
	C797.871826,784.715027 797.871826,788.306885 797.871826,792.359253 
	C805.228943,792.359253 812.320984,792.359253 819.975769,792.359253 
	C819.975769,796.937805 819.976074,801.060181 819.975769,805.182495 
	C819.973938,827.498596 819.861877,849.815430 820.007446,872.130554 
	C820.109985,887.854858 826.798523,898.352112 839.789001,901.487732 
	C847.718567,903.401733 856.122131,903.351990 864.530640,904.206421 
	C864.530640,899.110413 864.530640,895.371643 864.530640,891.120117 
	C860.605652,891.120117 856.969177,891.278198 853.350647,891.090942 
	C841.780518,890.492249 836.040222,885.181152 834.570129,873.792725 
	C834.294373,871.656189 834.252136,869.478149 834.250732,867.319214 
	C834.236267,845.003174 834.252502,822.687073 834.259888,800.371033 
	C834.260681,797.919312 834.259949,795.467590 834.259949,792.395874 
	C844.621338,792.395874 854.543579,792.395874 864.568054,792.395874 
	C864.568054,788.194519 864.568054,784.627197 864.568054,780.752747 
	C860.101501,780.752747 855.954956,780.752747 850.867615,780.749695 
M730.209900,783.949707 
	C729.523438,782.913757 728.901917,781.041748 728.139526,780.982422 
	C724.233826,780.678650 720.291870,780.841858 716.412109,780.841858 
	C716.412109,821.919861 716.412109,862.323181 716.412109,902.760681 
	C721.144348,902.760681 725.536926,902.760681 730.246460,902.760681 
	C730.246460,881.922302 730.094421,861.431152 730.343689,840.944824 
	C730.414062,835.162048 731.043945,829.235291 732.480774,823.648071 
	C736.759888,807.007568 747.055725,796.165771 764.468872,793.393921 
	C769.153137,792.648254 774.056702,793.281006 778.965698,793.281006 
	C778.965698,788.436279 778.965698,784.171143 778.965698,779.485413 
	C757.819458,777.617493 741.464783,784.641052 731.172791,804.146301 
	C730.854431,803.840027 730.536072,803.533752 730.217712,803.227478 
	C730.217712,797.109558 730.217712,790.991638 730.209900,783.949707 
z"/>
<path fill="#F9F9F9" opacity="1.000000" stroke="none" 
	d="
M46.531342,1.000000 
	C42.579025,2.576940 38.016342,3.843328 33.761696,5.784777 
	C15.697778,14.027576 5.285129,28.258118 1.328583,47.817551 
	C1.000000,32.407402 1.000000,16.814808 1.000000,1.000000 
	C16.020164,1.000000 31.041424,1.000000 46.531342,1.000000 
z"/>
<path fill="#F8F8F9" opacity="1.000000" stroke="none" 
	d="
M1255.000000,47.531338 
	C1253.953369,44.623257 1253.094116,41.174488 1251.829224,37.881542 
	C1243.928833,17.314474 1229.387695,4.856956 1207.150879,1.363132 
	C1222.925903,1.000000 1238.851929,1.000000 1255.000000,1.000000 
	C1255.000000,16.353514 1255.000000,31.708099 1255.000000,47.531338 
z"/>
<path fill="#F9F9F9" opacity="1.000000" stroke="none" 
	d="
M1207.468628,1255.000000 
	C1211.797607,1253.538452 1216.772339,1252.493286 1221.361938,1250.542358 
	C1239.687256,1242.752563 1250.255371,1228.593262 1254.656982,1209.157227 
	C1255.000000,1224.261597 1255.000000,1239.523315 1255.000000,1255.000000 
	C1239.313110,1255.000000 1223.625122,1255.000000 1207.468628,1255.000000 
z"/>
<path fill="#F9F9FA" opacity="1.000000" stroke="none" 
	d="
M1.000005,1209.468628 
	C1.366925,1209.661499 1.914275,1210.282104 2.074594,1210.990479 
	C7.194370,1233.611328 21.228125,1247.538086 43.443832,1253.521362 
	C44.239529,1253.735718 45.014969,1254.025146 45.899921,1254.639893 
	C31.072474,1255.000000 16.144947,1255.000000 1.000000,1255.000000 
	C1.000000,1239.979736 1.000000,1224.958496 1.000005,1209.468628 
z"/>
<path fill="#FBFBFB" opacity="1.000000" stroke="none" 
	d="
M587.392700,371.632812 
	C568.627136,345.918518 550.577759,320.106476 531.402893,295.159546 
	C515.437073,274.387573 494.760193,260.932281 467.227600,263.155914 
	C447.612091,264.740173 431.017578,274.062195 418.306702,288.642517 
	C402.011230,307.334656 386.889465,327.060333 371.488617,346.520050 
	C328.790375,400.471497 286.267303,454.561584 243.560196,508.505981 
	C218.850311,539.717590 193.949203,570.778137 169.059189,601.846558 
	C164.478882,607.563843 159.651779,613.095032 154.735641,618.528503 
	C148.979813,624.890015 140.559830,625.992676 134.570068,621.441895 
	C128.650040,616.944092 127.608467,608.456909 132.789078,601.253235 
	C151.070953,575.832153 169.363907,550.414124 188.037430,525.280823 
	C213.857864,490.528137 239.853470,455.902405 266.088379,421.461761 
	C303.533569,372.304443 341.103424,323.240112 378.937622,274.381989 
	C398.500641,249.118820 423.820404,232.489105 455.667389,226.923782 
	C490.477264,220.840668 520.445740,231.697906 545.234375,255.678619 
	C557.085632,267.143646 566.829163,280.961487 576.554871,294.416626 
	C604.444336,333.000610 631.717041,372.029755 659.462585,410.718658 
	C682.359070,442.645966 705.584778,474.337250 728.660339,506.136200 
	C729.338440,507.070648 729.969055,508.039612 730.586975,508.941467 
	C722.172913,520.530396 702.846130,522.352600 690.804260,512.163757 
	C685.800964,507.930420 681.687012,502.474182 677.807251,497.111908 
	C647.657410,455.441406 617.663635,413.658051 587.392700,371.632812 
z"/>
<path fill="#FAFAFB" opacity="1.000000" stroke="none" 
	d="
M702.415222,354.573730 
	C737.067200,401.056213 771.460388,447.285400 805.936035,493.452972 
	C816.296509,507.326935 826.523926,521.325195 837.464233,534.734558 
	C850.721924,550.984253 867.345398,562.185913 888.717041,564.787048 
	C909.179321,567.277588 926.880371,560.428772 940.930542,546.097534 
	C952.186035,534.616821 962.328308,521.883423 971.845337,508.886414 
	C1021.999329,440.393707 1071.794189,371.638062 1121.736694,302.990417 
	C1123.495972,300.572357 1125.294678,298.122498 1127.425415,296.047302 
	C1132.693481,290.916443 1139.503052,289.875519 1144.752686,293.102051 
	C1150.344727,296.539093 1153.253784,303.378143 1150.407837,310.143890 
	C1147.467163,317.134644 1143.457031,323.782135 1139.192627,330.091827 
	C1115.801636,364.700989 1092.419312,399.320190 1068.590454,433.627960 
	C1042.858887,470.675018 1016.642090,507.384979 990.630920,544.237732 
	C980.508911,558.578613 969.586853,572.151428 955.256836,582.656738 
	C911.506836,614.730103 855.982788,608.215820 822.034180,565.762268 
	C809.304871,549.843933 799.276306,531.784607 787.738586,514.891113 
	C756.748718,469.516052 725.798401,424.111786 694.448181,378.985992 
	C678.974304,356.712769 662.652588,335.028625 646.806274,313.204285 
	C650.057129,304.869324 663.995483,303.695801 669.802612,311.772369 
	C680.200012,326.233185 691.351685,340.151642 702.415222,354.573730 
z"/>
<path fill="#F9F9F9" opacity="1.000000" stroke="none" 
	d="
M309.161926,704.358276 
	C306.200775,712.912170 303.254669,721.058472 300.563293,729.288147 
	C299.710754,731.895020 298.571106,733.007935 295.653839,732.929810 
	C287.547424,732.712708 279.431396,732.854492 270.581909,732.854492 
	C275.695984,719.174866 280.528381,706.122437 285.451202,693.104187 
	C300.116302,654.322998 314.863892,615.572815 329.415985,576.749329 
	C330.604065,573.579590 331.965027,572.331970 335.404266,572.462036 
	C342.891174,572.745239 350.400940,572.430237 357.887054,572.723999 
	C359.343384,572.781189 361.544739,574.183960 362.039337,575.484375 
	C381.279694,626.073120 400.362976,676.721680 419.457581,727.365845 
	C420.035492,728.898682 420.514038,730.468933 421.303314,732.804016 
	C411.829071,732.804016 402.787292,732.911926 393.756836,732.642151 
	C392.822693,732.614197 391.606323,730.463257 391.112549,729.085388 
	C386.968018,717.521057 382.961731,705.907288 378.880096,694.211792 
	C356.849213,694.211792 335.052734,694.211792 312.941711,694.211792 
	C311.719421,697.469421 310.497437,700.726196 309.161926,704.358276 
M358.490082,671.387512 
	C362.371704,671.387512 366.253296,671.387512 370.831512,671.387512 
	C362.454468,647.651611 354.384430,624.785583 345.918518,600.797974 
	C337.427917,624.838928 329.331299,647.764221 320.985046,671.396362 
	C333.645203,671.396362 345.569672,671.396362 358.490082,671.387512 
z"/>
<path fill="#F9F9FA" opacity="1.000000" stroke="none" 
	d="
M511.906860,622.694519 
	C517.215759,607.014343 522.465332,591.729614 527.528625,576.383484 
	C528.439819,573.621826 529.580505,572.397766 532.716980,572.492798 
	C540.990479,572.743286 549.276550,572.577515 558.288452,572.577515 
	C550.793945,593.322937 543.645691,613.323425 536.345642,633.268250 
	C524.722900,665.023132 512.939087,696.719177 501.404999,728.506042 
	C500.170929,731.907043 498.557343,733.067139 495.013519,732.943298 
	C487.690826,732.687500 480.346191,733.040771 473.025787,732.754578 
	C471.580261,732.698059 469.394257,731.184814 468.911255,729.850525 
	C450.252991,678.311340 431.752411,626.715149 413.243988,575.121826 
	C413.034332,574.537354 412.994354,573.892151 412.799957,572.886230 
	C422.493958,572.886230 431.919373,572.886230 441.766327,572.886230 
	C456.106476,615.161133 470.540894,657.713928 485.213531,700.969055 
	C494.239166,674.507202 503.011475,648.788086 511.906860,622.694519 
z"/>
<path fill="#F4F4F4" opacity="1.000000" stroke="none" 
	d="
M426.242126,886.090210 
	C426.237274,907.227173 426.237274,927.875061 426.237274,948.753174 
	C421.561859,948.753174 417.285370,948.753174 412.617004,948.753174 
	C412.617004,892.932129 412.617004,837.183105 412.617004,781.119141 
	C416.821320,781.119141 421.231873,781.119141 426.275787,781.119141 
	C426.275787,789.424255 426.275787,797.784607 426.275787,806.144958 
	C439.096588,786.932007 456.903839,777.953064 479.286041,778.291077 
	C496.487305,778.550842 511.485138,784.746338 523.286621,797.631287 
	C547.486938,824.053223 544.750916,868.612427 518.145447,891.657471 
	C497.652435,909.408020 451.283722,915.264893 426.247009,878.689941 
	C426.247009,880.993652 426.247009,883.297424 426.242126,886.090210 
M495.760590,889.503845 
	C515.190002,880.418518 526.488037,862.034119 525.757507,840.692383 
	C524.831787,813.647217 505.056366,792.144104 479.989990,790.842712 
	C441.346313,788.836365 416.611053,825.235901 429.512573,861.243835 
	C439.066162,887.907776 467.066193,899.740051 495.760590,889.503845 
z"/>
<path fill="#F6F5F6" opacity="1.000000" stroke="none" 
	d="
M670.637939,887.636108 
	C651.859436,906.260193 620.428223,911.096191 596.124634,899.314758 
	C572.698608,887.958740 559.106750,862.273682 562.175598,835.159973 
	C567.617249,787.081421 618.508789,762.288879 659.294556,788.419495 
	C679.940063,801.646729 687.107422,822.146484 686.261963,846.478516 
	C649.441589,846.478516 613.043152,846.478516 576.688354,846.478516 
	C575.088623,864.925720 589.873779,885.075867 609.063354,891.005859 
	C630.079834,897.500427 656.286987,891.142090 667.556152,869.782776 
	C668.145020,868.666748 670.033936,867.735535 671.392273,867.623474 
	C675.007202,867.325317 678.662903,867.522156 682.969421,867.522156 
	C680.379150,875.704956 676.162476,881.859680 670.637939,887.636108 
M671.115295,827.645508 
	C664.521057,802.374634 644.461243,788.330322 618.789795,791.011169 
	C596.022217,793.388855 577.297180,812.731140 576.466125,834.724487 
	C608.306946,834.724487 640.147705,834.724487 672.304749,834.724487 
	C671.900879,832.387268 671.563599,830.435608 671.115295,827.645508 
z"/>
<path fill="#F5F5F5" opacity="1.000000" stroke="none" 
	d="
M944.560425,837.525635 
	C951.415649,840.585693 958.677124,842.442444 964.249756,846.575928 
	C983.681885,860.990051 979.685669,890.140503 956.751953,900.304199 
	C938.640564,908.330811 920.055725,907.942444 902.246155,898.770386 
	C890.963318,892.959717 884.726501,883.366089 883.515625,870.163208 
	C887.983887,870.163208 892.219788,870.163208 896.872009,870.163208 
	C897.474426,871.971252 898.077148,874.187195 898.938538,876.297607 
	C903.547913,887.589905 913.280518,891.525085 924.204224,893.119141 
	C934.096863,894.562683 943.795593,893.704102 952.633606,888.205750 
	C966.349365,879.672791 966.192871,861.431213 951.754211,854.269287 
	C944.256348,850.550110 935.822449,848.695679 927.773376,846.117737 
	C922.231384,844.342773 916.556213,842.968323 911.058838,841.071960 
	C895.432861,835.681885 887.778320,826.563110 887.270630,813.088257 
	C886.774353,799.916443 894.385681,788.309021 908.881042,782.612732 
	C926.971863,775.503479 944.782898,776.135681 960.990662,788.133545 
	C968.764282,793.888000 972.476196,801.798157 973.037903,812.154663 
	C968.817627,812.154663 964.605347,812.154663 960.323242,812.154663 
	C952.964050,791.900330 931.574890,783.927490 912.306580,794.494324 
	C905.343750,798.312744 901.371887,804.182495 901.537598,812.307739 
	C901.703979,820.466431 906.310547,825.918030 913.597046,828.419678 
	C923.635986,831.866333 933.979309,834.426453 944.560425,837.525635 
z"/>
<path fill="#F5F5F6" opacity="1.000000" stroke="none" 
	d="
M310.556213,824.501343 
	C299.239258,810.080627 288.145905,795.938477 276.301697,780.839172 
	C282.245972,780.839172 287.429047,780.583923 292.555725,781.008789 
	C293.930817,781.122742 295.309265,783.173340 296.389374,784.565125 
	C308.124725,799.687683 319.800964,814.856140 331.904846,830.545471 
	C335.547211,825.884338 339.002167,821.514221 342.402313,817.101746 
	C350.838684,806.153748 359.361633,795.269104 367.589050,784.165771 
	C369.528778,781.548035 371.492767,780.580444 374.613434,780.770508 
	C378.575592,781.011780 382.563568,780.828918 387.464142,780.828918 
	C371.659119,801.010132 356.330170,820.583374 340.679565,840.567383 
	C356.872101,861.102478 373.082306,881.659973 389.919128,903.012085 
	C384.028473,903.012085 378.952637,903.252625 373.926727,902.857605 
	C372.517487,902.746887 371.011719,900.956177 369.962738,899.613647 
	C357.371765,883.500732 344.858582,867.327148 331.959839,850.698547 
	C328.473022,855.087524 325.162781,859.169739 321.943604,863.322449 
	C312.658325,875.300598 303.320709,887.240295 294.212830,899.352356 
	C292.087219,902.179077 289.894745,903.478210 286.336334,903.172668 
	C282.583618,902.850464 278.781799,903.100525 273.793640,903.100525 
	C290.495544,881.784668 306.543427,861.303528 322.900787,840.427429 
	C318.873291,835.228149 314.826569,830.003967 310.556213,824.501343 
z"/>
<path fill="#F9F8F9" opacity="1.000000" stroke="none" 
	d="
M851.338013,780.751221 
	C855.954956,780.752747 860.101501,780.752747 864.568054,780.752747 
	C864.568054,784.627197 864.568054,788.194519 864.568054,792.395874 
	C854.543579,792.395874 844.621338,792.395874 834.259949,792.395874 
	C834.259949,795.467590 834.260681,797.919312 834.259888,800.371033 
	C834.252502,822.687073 834.236267,845.003174 834.250732,867.319214 
	C834.252136,869.478149 834.294373,871.656189 834.570129,873.792725 
	C836.040222,885.181152 841.780518,890.492249 853.350647,891.090942 
	C856.969177,891.278198 860.605652,891.120117 864.530640,891.120117 
	C864.530640,895.371643 864.530640,899.110413 864.530640,904.206421 
	C856.122131,903.351990 847.718567,903.401733 839.789001,901.487732 
	C826.798523,898.352112 820.109985,887.854858 820.007446,872.130554 
	C819.861877,849.815430 819.973938,827.498596 819.975769,805.182495 
	C819.976074,801.060181 819.975769,796.937805 819.975769,792.359253 
	C812.320984,792.359253 805.228943,792.359253 797.871826,792.359253 
	C797.871826,788.306885 797.871826,784.715027 797.871826,780.776489 
	C805.131409,780.776489 812.260254,780.776489 819.818726,780.776489 
	C819.818726,768.531555 819.818726,756.620178 819.818726,744.366821 
	C824.644531,744.366821 829.044617,744.366821 834.017944,744.366821 
	C834.017944,756.157898 834.017944,768.047668 834.017944,780.749695 
	C839.992859,780.749695 845.430237,780.749695 851.338013,780.751221 
z"/>
<path fill="#F4F4F5" opacity="1.000000" stroke="none" 
	d="
M730.213806,784.411743 
	C730.217712,790.991638 730.217712,797.109558 730.217712,803.227478 
	C730.536072,803.533752 730.854431,803.840027 731.172791,804.146301 
	C741.464783,784.641052 757.819458,777.617493 778.965698,779.485413 
	C778.965698,784.171143 778.965698,788.436279 778.965698,793.281006 
	C774.056702,793.281006 769.153137,792.648254 764.468872,793.393921 
	C747.055725,796.165771 736.759888,807.007568 732.480774,823.648071 
	C731.043945,829.235291 730.414062,835.162048 730.343689,840.944824 
	C730.094421,861.431152 730.246460,881.922302 730.246460,902.760681 
	C725.536926,902.760681 721.144348,902.760681 716.412109,902.760681 
	C716.412109,862.323181 716.412109,821.919861 716.412109,780.841858 
	C720.291870,780.841858 724.233826,780.678650 728.139526,780.982422 
	C728.901917,781.041748 729.523438,782.913757 730.213806,784.411743 
z"/>
<path fill="#060606" opacity="1.000000" stroke="none" 
	d="
M357.992096,671.391968 
	C345.569672,671.396362 333.645203,671.396362 320.985046,671.396362 
	C329.331299,647.764221 337.427917,624.838928 345.918518,600.797974 
	C354.384430,624.785583 362.454468,647.651611 370.831512,671.387512 
	C366.253296,671.387512 362.371704,671.387512 357.992096,671.391968 
z"/>
<path fill="#030202" opacity="1.000000" stroke="none" 
	d="
M495.412537,889.672852 
	C467.066193,899.740051 439.066162,887.907776 429.512573,861.243835 
	C416.611053,825.235901 441.346313,788.836365 479.989990,790.842712 
	C505.056366,792.144104 524.831787,813.647217 525.757507,840.692383 
	C526.488037,862.034119 515.190002,880.418518 495.412537,889.672852 
z"/>
<path fill="#030303" opacity="1.000000" stroke="none" 
	d="
M671.170837,828.064697 
	C671.563599,830.435608 671.900879,832.387268 672.304749,834.724487 
	C640.147705,834.724487 608.306946,834.724487 576.465576,834.727844 
	C577.297180,812.731140 596.022217,793.388855 618.789795,791.011169 
	C644.461243,788.330322 664.521057,802.374634 671.170837,828.064697 
z"/>
</svg>